# xmcd
#
# Track frame offsets: 
#        150
#        14395
#        37336
#        50634
#        66199
#        75481
#        92796
#        111673
#        125100
#        146404
#        159430
#
# Disc length: 2524 seconds
#
# Revision: 0
# Processed by: cddbd v1.5.2PL0 Copyright (c) Steve Scherf et al.
# Submitted via: ExactAudioCopy v1.3
#
DISCID=9e09da0b
DTITLE=Duke Garwood - Garden of Ashes
DYEAR=2017
DGENRE=Blues
TTITLE0=Coldblooded
TTITLE1=Sonny Boogie
TTITLE2=Blue
TTITLE3=Days Gone Old
TTITLE4=Sing to the Sky
TTITLE5=Garden of Ashes
TTITLE6=Heat Us Down
TTITLE7=Hard Dreams
TTITLE8=Move on Softly
TTITLE9=Sleep
TTITLE10=Coldblooded the Return
EXTD=
EXTT0=
EXTT1=
EXTT2=
EXTT3=
EXTT4=
EXTT5=
EXTT6=
EXTT7=
EXTT8=
EXTT9=
EXTT10=
PLAYORDER=
